<svg viewBox="0 0 268 311" fill="none" xmlns="http://www.w3.org/2000/svg">
<path d="M203.301 224.777L179.444 206.32L194.466 184.72L219.188 206.32C219.188 206.32 219.101 215.349 215.656 219.118C212.211 222.887 203.301 224.777 203.301 224.777Z" fill="#FFBE9D"/>
<path d="M80.5695 168.93C80.6451 168.239 116.285 137.913 120.227 135.45C125.163 132.405 137.248 131.033 143.501 136.422C149.301 141.433 199.316 183.219 199.316 183.219L179.141 207.832L135.682 173.898C135.682 173.898 94.4475 198.738 94.0371 199.322C93.6267 199.905 74.2623 192.69 74.2623 192.042C74.2623 191.394 80.5695 168.93 80.5695 168.93Z" fill="#263238"/>
<path d="M193.959 217.53L214.986 235.458L219.609 244.098C221.369 247.403 223.713 245.351 227.007 243.59L267.237 222.163C267.237 222.163 266.978 217.12 263.338 217.433C259.698 217.746 230.592 217.325 230.592 217.325L212.286 199.613L193.959 217.53Z" fill="#E0E0E0"/>
<path d="M190.902 217.53L196.389 221.688C196.797 221.994 197.303 222.139 197.811 222.095C198.319 222.052 198.793 221.822 199.143 221.451L215.418 203.944C215.76 203.567 215.949 203.076 215.949 202.567C215.949 202.058 215.76 201.567 215.418 201.19L211.001 196.146C210.813 195.932 210.581 195.759 210.322 195.639C210.063 195.518 209.781 195.454 209.496 195.449C209.21 195.443 208.926 195.498 208.663 195.609C208.4 195.72 208.162 195.884 207.966 196.092L190.6 214.452C190.397 214.665 190.243 214.918 190.147 215.196C190.052 215.474 190.017 215.769 190.046 216.061C190.074 216.353 190.166 216.635 190.314 216.889C190.461 217.143 190.662 217.361 190.902 217.53Z" fill="#E0E0E0"/>
<path d="M216.045 203.252C215.411 204.312 214.688 205.317 213.885 206.255C212.459 208.048 210.44 210.488 208.064 213.048C205.688 215.608 203.409 217.811 201.702 219.334C200.838 220.09 200.136 220.694 199.629 221.094C199.39 221.325 199.117 221.518 198.819 221.666C199.63 220.737 200.499 219.861 201.422 219.042C203.063 217.454 205.288 215.219 207.653 212.67C210.018 210.121 212.081 207.724 213.572 205.996C214.335 205.028 215.161 204.112 216.045 203.252Z" fill="#263238"/>
<path d="M200.903 218.794C199.131 218.292 197.525 217.327 196.249 215.998C194.973 214.67 194.075 213.025 193.646 211.234C194.483 212.8 195.493 214.268 196.659 215.608C197.954 216.821 199.377 217.889 200.903 218.794Z" fill="#263238"/>
<path d="M207.696 213.124C204.469 211 201.584 208.396 199.143 205.402C200.668 206.557 202.112 207.816 203.463 209.171C204.967 210.385 206.382 211.706 207.696 213.124Z" fill="#263238"/>
<path d="M213.496 205.445C212.368 204.004 211.041 202.731 209.554 201.665C207.966 200.756 206.252 200.09 204.467 199.689C205.013 199.55 205.585 199.55 206.13 199.689C207.454 199.939 208.718 200.437 209.856 201.157C210.998 201.883 211.985 202.826 212.762 203.933C213.117 204.375 213.368 204.892 213.496 205.445Z" fill="#263238"/>
<path d="M229.782 241.863C229.707 241.917 229.21 241.182 228.206 240.221C226.901 238.964 225.335 238.009 223.62 237.425C221.904 236.841 220.081 236.641 218.28 236.841C216.898 236.992 216.056 237.262 216.034 237.176C216.694 236.783 217.431 236.537 218.194 236.452C220.059 236.132 221.975 236.284 223.767 236.895C225.557 237.507 227.167 238.554 228.454 239.94C229.035 240.474 229.489 241.131 229.782 241.863Z" fill="#263238"/>
<path d="M255.357 228.546C255.357 228.546 254.795 228.168 254.201 227.272C253.428 226.086 253.016 224.702 253.013 223.286C253.038 221.884 253.351 220.502 253.931 219.226C254.12 218.682 254.418 218.182 254.806 217.757C254.704 218.316 254.533 218.86 254.298 219.377C253.853 220.634 253.609 221.953 253.575 223.286C253.587 224.61 253.92 225.911 254.547 227.077C255.022 227.974 255.432 228.481 255.357 228.546Z" fill="#263238"/>
<path d="M99.8368 96.1491C99.394 92.5851 95.5168 90.3171 94.642 86.8395C93.562 82.8219 96.802 78.9771 97.3204 74.8623C97.8388 70.9095 95.884 67.1079 94.8472 63.2523C92.6872 55.4007 94.3612 47.0523 95.1172 39.0063C95.8732 30.9603 96.2512 15.9483 83.0968 7.16794L71.908 2.15674C62.458 21.2295 66.3784 51.8367 62.3716 72.6915C60.9244 80.2515 59.8444 88.1355 61.4968 95.6847C62.744 100.596 64.6437 105.318 67.1452 109.725C69.6292 114.455 72.5452 119.304 77.146 121.94C81.7468 124.575 88.6804 123.948 91.3048 119.304C93.2704 115.827 92.3308 111.356 93.8968 107.684C95.6356 103.634 100.388 100.545 99.8368 96.1491Z" fill="#263238"/>
<path d="M38.2768 72.8965C38.2768 72.8965 29.95 73.8577 24.2368 77.8753C15.2404 84.2365 9.00876 98.4817 5.87676 118.818C3.27396 135.742 1.71877 154.274 0.919568 166.684C-0.268432 185.497 -0.344031 193.986 0.919568 198.144C3.07957 205.045 6.80557 228.719 22.4008 231.116C22.4008 231.116 27.8008 223.621 29.896 215.824C31.9912 208.026 39.1624 186.361 59.218 183.694C61.0108 183.456 81.196 180.454 81.196 180.454C81.196 180.454 79.8352 161.014 79.8352 153.454C79.8352 149.63 81.1096 142.427 82.3732 136.174C83.9932 128.192 81.7252 119.714 79.5652 111.863C77.4052 104.011 75.7636 93.3301 74.2624 90.5437C72.299 87.2292 69.4386 84.5373 66.0112 82.7785L38.2768 72.8965Z" fill="#BA68C8"/>
<path d="M53.7424 184.299C53.7424 184.299 53.0404 184.299 51.7876 184.299C50.0122 184.326 48.2436 184.525 46.5064 184.893C43.9311 185.42 41.4214 186.227 39.022 187.301C36.0761 188.578 33.3298 190.273 30.868 192.334C25.7272 196.881 22.2928 202.183 19.8304 205.931L16.9792 210.456C16.6591 211.025 16.2982 211.57 15.8992 212.087C16.1497 211.477 16.4495 210.888 16.7956 210.327C17.4004 209.247 18.3076 207.637 19.474 205.693C22.4358 200.561 26.1448 195.899 30.4792 191.859C32.9876 189.754 35.7982 188.04 38.8168 186.772C41.2626 185.705 43.8254 184.929 46.4524 184.461C48.2315 184.123 50.0427 183.986 51.8524 184.05C52.3406 184.063 52.8275 184.107 53.3104 184.18C53.4595 184.198 53.6051 184.238 53.7424 184.299Z" fill="#263238"/>
<g opacity="0.4">
<path opacity="0.4" d="M14.6248 203.393C13.937 204.129 13.4401 205.023 13.1776 205.996C13.0594 206.482 13.1005 206.993 13.295 207.454C13.4895 207.915 13.8269 208.301 14.2576 208.555C15.5212 209.117 16.882 208.037 17.8216 207.011C21.2452 203.263 24.2152 199.116 27.6172 195.347C31.0192 191.578 34.2592 188.867 38.9896 186.977C27.2608 190.53 22.3576 193.835 14.6248 203.393Z" fill="black"/>
</g>
<g opacity="0.4">
<path opacity="0.4" d="M78.6364 160.15C78.6143 159.837 78.5246 159.534 78.3736 159.26C78.2225 158.985 78.0137 158.747 77.7616 158.562C77.4124 158.428 77.038 158.372 76.6648 158.398C76.2916 158.424 75.9287 158.532 75.6016 158.713L49.1416 168.93C43.9468 170.928 38.2768 172.948 32.9416 171.36C27.358 169.708 23.524 164.297 22.1416 158.638C20.7592 152.978 21.5368 147.038 22.498 141.358C23.4592 135.677 25.1008 126.4 25.1008 126.4L12.8212 107.942C10.9852 125.352 5.47718 162.547 8.79278 176.976C10.0672 182.473 13.1128 185.929 17.8432 188.996C21.7312 191.513 29.0752 188.597 33.9028 186.685C46.42 181.696 58.3432 176.695 68.2036 171.025C70.612 169.632 78.01 164.621 79.6408 162.385C81.2716 160.15 79.1116 162.893 78.6364 160.15Z" fill="black"/>
</g>
<path d="M23.2216 229.918C22.984 230.274 45.5344 233.482 64.7692 232.542C84.004 231.603 124.634 216.45 124.634 216.45C123.664 222.287 123.097 228.183 122.938 234.097C122.873 242.187 126.848 269.5 126.848 269.5H160.23V210.964C160.23 210.964 159.291 188.845 159.226 185.206C159.118 179.709 152.584 171.835 141.946 172.451C132.939 172.98 53.1376 184.385 53.1376 184.385C53.1376 184.385 41.1172 188.187 36.2572 194.602C31.3972 201.017 23.2216 229.918 23.2216 229.918Z" fill="#263238"/>
<path d="M35.3823 210.456C33.3854 210.81 31.3366 210.743 29.3667 210.262C31.3637 209.908 33.4123 209.974 35.3823 210.456Z" fill="#455A64"/>
<path d="M47.4352 209.862C46.4897 210.247 45.4746 210.431 44.4544 210.402C43.4471 210.576 42.4153 210.547 41.4196 210.316C42.3659 209.934 43.3803 209.751 44.4004 209.776C45.4081 209.609 46.4385 209.638 47.4352 209.862Z" fill="#455A64"/>
<path d="M59.3691 208.275C58.4562 208.726 57.4597 208.983 56.4423 209.031C55.4545 209.284 54.4253 209.331 53.4183 209.171C55.3188 208.465 57.3449 208.16 59.3691 208.275Z" fill="#455A64"/>
<path d="M71.2168 206.028C70.3232 206.523 69.3386 206.832 68.3224 206.936C67.3478 207.234 66.3222 207.33 65.3092 207.216C66.1982 206.722 67.18 206.416 68.1928 206.32C69.171 206.021 70.1994 205.922 71.2168 206.028Z" fill="#455A64"/>
<path d="M82.978 203.49C81.1305 204.327 79.1308 204.775 77.1028 204.808C77.9823 204.287 78.9608 203.956 79.9756 203.836C80.9424 203.517 81.9641 203.4 82.978 203.49Z" fill="#455A64"/>
<path d="M94.7823 200.801C93.8962 201.305 92.9205 201.631 91.9095 201.762C90.9388 202.08 89.9138 202.197 88.8964 202.108C89.7825 201.604 90.7582 201.278 91.7692 201.147C92.7399 200.829 93.7649 200.712 94.7823 200.801Z" fill="#455A64"/>
<path d="M106.544 198.371C105.65 198.865 104.665 199.17 103.649 199.267C102.67 199.561 101.641 199.653 100.625 199.537C101.524 199.049 102.512 198.747 103.53 198.652C104.505 198.353 105.531 198.258 106.544 198.371Z" fill="#455A64"/>
<path d="M118.445 196.481C117.523 196.915 116.525 197.164 115.508 197.216C114.514 197.46 113.482 197.501 112.473 197.334C113.392 196.894 114.392 196.644 115.41 196.6C116.404 196.356 117.436 196.315 118.445 196.481Z" fill="#455A64"/>
<path d="M130.422 195.736C129.438 195.934 128.433 196.003 127.431 195.941C126.424 196.087 125.4 196.051 124.407 195.833C125.356 195.436 126.382 195.259 127.409 195.315C128.433 195.171 129.477 195.317 130.422 195.736Z" fill="#455A64"/>
<path d="M137.356 203.998C137.162 203.998 137.043 202.648 136.686 201.082C136.33 199.516 135.606 198.403 135.736 198.295C135.866 198.187 136.924 199.213 137.291 200.931C137.616 201.924 137.638 202.991 137.356 203.998Z" fill="#455A64"/>
<path d="M137.831 216.04C137.484 215.079 137.333 214.058 137.388 213.038C137.242 212.027 137.308 210.997 137.583 210.014C137.928 210.975 138.075 211.996 138.015 213.016C138.162 214.026 138.099 215.055 137.831 216.04Z" fill="#455A64"/>
<path d="M138.425 228.071C138.079 227.117 137.928 226.104 137.982 225.09C137.823 224.082 137.878 223.052 138.144 222.066C138.499 223.022 138.657 224.04 138.609 225.058C138.754 226.064 138.691 227.09 138.425 228.071Z" fill="#455A64"/>
<path d="M139.062 240.102C138.542 238.141 138.428 236.093 138.728 234.086C139.263 236.046 139.377 238.096 139.062 240.102Z" fill="#455A64"/>
<path d="M139.721 252.09C139.193 250.13 139.086 248.08 139.408 246.075C139.922 248.038 140.028 250.085 139.721 252.09Z" fill="#455A64"/>
<path d="M140.261 264.175C139.758 262.206 139.67 260.154 140.002 258.149C140.505 260.118 140.593 262.17 140.261 264.175Z" fill="#455A64"/>
<path d="M137.054 187.863C136.447 189.302 135.758 190.704 134.991 192.064C133.695 194.645 131.967 198.231 130.25 202.281C128.532 206.331 127.172 210.078 126.232 212.811C125.781 214.305 125.255 215.776 124.655 217.217C124.678 216.794 124.758 216.377 124.893 215.975C125.076 215.187 125.39 214.064 125.811 212.67C126.911 209.064 128.198 205.517 129.666 202.043C131.137 198.566 132.784 195.167 134.602 191.859C135.304 190.595 135.898 189.58 136.33 188.9C136.527 188.525 136.77 188.177 137.054 187.863Z" fill="#455A64"/>
<path d="M147.486 198.587C147.486 198.684 145.92 199.311 143.458 200.574C140.254 202.233 137.229 204.216 134.429 206.493C131.647 208.792 129.113 211.376 126.869 214.204C125.141 216.364 124.212 217.822 124.126 217.768C124.256 217.383 124.442 217.019 124.677 216.688C125.24 215.738 125.853 214.819 126.513 213.934C130.868 208.031 136.625 203.305 143.264 200.185C144.256 199.703 145.277 199.281 146.32 198.922C146.69 198.754 147.083 198.641 147.486 198.587Z" fill="#455A64"/>
<path d="M160.23 214.538C160.173 214.327 160.144 214.109 160.144 213.89C160.144 213.394 160.079 212.81 160.036 212.044C159.971 210.337 159.874 208.037 159.755 205.229C159.636 202.421 159.539 198.911 159.42 195.131C159.334 193.241 159.345 191.221 159.194 189.191C159.018 187.082 158.657 184.993 158.114 182.948C157.827 181.916 157.466 180.905 157.034 179.924C156.603 178.999 156.011 178.157 155.284 177.44C153.906 176.061 152.274 174.96 150.478 174.2C148.863 173.47 147.128 173.038 145.359 172.926C143.801 172.839 142.24 172.839 140.682 172.926C137.82 173.088 135.509 173.326 133.9 173.455L132.053 173.596C131.838 173.624 131.62 173.624 131.405 173.596C131.611 173.526 131.825 173.482 132.042 173.466L133.878 173.207C135.477 173.002 137.777 172.699 140.661 172.483C142.234 172.354 143.813 172.314 145.391 172.364C147.225 172.456 149.026 172.884 150.705 173.628C152.579 174.415 154.284 175.555 155.727 176.987C156.503 177.754 157.136 178.654 157.595 179.644C158.037 180.654 158.398 181.698 158.675 182.765C159.224 184.845 159.585 186.971 159.755 189.115C159.896 191.21 159.874 193.187 159.939 195.098C160.014 198.878 160.09 202.291 160.144 205.196C160.198 208.102 160.209 210.316 160.23 212.011C160.23 212.756 160.23 213.372 160.23 213.869C160.257 214.091 160.257 214.316 160.23 214.538Z" fill="#455A64"/>
<path d="M128.705 174.6C128.469 174.67 128.227 174.713 127.982 174.73L125.897 175L118.218 175.929C111.738 176.696 102.774 177.786 92.8924 179.082C83.0104 180.378 74.0679 181.663 67.6095 182.614L59.9523 183.694L57.868 183.975C57.6246 184.011 57.3794 184.032 57.1335 184.039C57.3619 183.949 57.6019 183.891 57.8463 183.867L59.9092 183.478C61.7128 183.154 64.3155 182.711 67.5447 182.193C74.0247 181.113 82.9239 179.817 92.8167 178.51C102.71 177.203 111.674 176.177 118.175 175.508C121.415 175.173 124.05 174.914 125.876 174.762L127.971 174.6C128.215 174.574 128.461 174.574 128.705 174.6Z" fill="#455A64"/>
<path d="M131.384 292.655L129.44 269.532H157.206L156.45 292.147C156.45 292.147 148.826 298.519 143.717 298.368C138.609 298.217 131.384 292.655 131.384 292.655Z" fill="#FFBE9D"/>
<path d="M129.342 275.667L131.837 310.605H188.872C188.872 310.605 191.172 305.701 187.576 304.125C183.98 302.548 157.26 294.61 157.26 294.61L156.99 274.565L129.342 275.667Z" fill="#E0E0E0"/>
<path d="M126.988 276.088L127.971 283.292C128.048 283.822 128.319 284.305 128.733 284.646C129.146 284.987 129.671 285.163 130.206 285.138L155.511 283.788C156.051 283.758 156.562 283.532 156.948 283.152C157.333 282.773 157.567 282.265 157.606 281.726L158.103 274.641C158.121 274.341 158.076 274.04 157.972 273.759C157.867 273.477 157.705 273.22 157.496 273.005C157.287 272.789 157.034 272.62 156.756 272.507C156.477 272.395 156.178 272.342 155.878 272.351L129.094 273.572C128.786 273.587 128.485 273.666 128.209 273.803C127.933 273.94 127.689 274.133 127.491 274.37C127.293 274.606 127.147 274.88 127.06 275.176C126.973 275.472 126.949 275.782 126.988 276.088Z" fill="#E0E0E0"/>
<path d="M156.828 283.842C156.48 283.966 156.117 284.042 155.748 284.069C155.068 284.177 154.064 284.317 152.832 284.458C150.37 284.76 146.946 285.084 143.112 285.246C139.278 285.408 135.876 285.354 133.392 285.246C132.15 285.17 131.146 285.106 130.455 285.03C130.089 285.018 129.726 284.96 129.375 284.857C130.713 284.777 132.054 284.777 133.392 284.857C135.866 284.857 139.289 284.857 143.112 284.717C146.936 284.576 150.305 284.296 152.778 284.101C154.121 283.923 155.474 283.837 156.828 283.842Z" fill="#263238"/>
<path d="M135.196 284.89C134.167 283.151 133.509 281.218 133.263 279.212C133.018 277.207 133.191 275.172 133.77 273.236C133.646 275.204 133.646 277.177 133.77 279.144C134.123 281.088 134.599 283.007 135.196 284.89Z" fill="#263238"/>
<path d="M142.119 284.868C141.876 282.941 141.761 281 141.773 279.058C141.591 277.123 141.537 275.178 141.611 273.236C142.405 277.061 142.577 280.989 142.119 284.868Z" fill="#263238"/>
<path d="M150.489 284.717C150.316 284.717 150.834 282.06 150.726 278.799C150.618 275.537 149.981 272.956 150.143 272.913C150.931 274.766 151.321 276.764 151.288 278.777C151.436 280.791 151.164 282.814 150.489 284.717Z" fill="#263238"/>
<path d="M140.142 310.41C139.9 309.82 139.687 309.218 139.505 308.607C138.941 307.199 138.112 305.912 137.064 304.816C136.009 303.729 134.75 302.859 133.36 302.256C132.755 302.058 132.163 301.82 131.589 301.544C132.246 301.511 132.903 301.625 133.511 301.878C135.012 302.408 136.368 303.28 137.472 304.425C138.577 305.571 139.398 306.958 139.872 308.477C140.116 309.091 140.208 309.754 140.142 310.41Z" fill="#263238"/>
<path d="M174.432 309.784C174.368 309.784 174.098 309.276 173.979 308.358C173.838 307.141 174.009 305.907 174.476 304.774C174.942 303.64 175.689 302.644 176.646 301.878C177.014 301.532 177.47 301.293 177.964 301.187C177.964 301.273 177.532 301.565 176.884 302.181C176.06 302.974 175.409 303.93 174.972 304.988C174.536 306.045 174.322 307.182 174.346 308.326C174.418 308.808 174.447 309.296 174.432 309.784Z" fill="#263238"/>
<path d="M86.6716 10.3861C84.1059 7.67497 81.0175 5.51168 77.5929 4.02674C74.1682 2.5418 70.4783 1.76598 66.7456 1.74609C62.5228 1.74609 53.116 5.5045 52.5652 11.2285C65.0392 19.8685 78.874 24.3937 92.1796 31.6297C92.9032 24.3613 91.5424 15.7969 86.6716 10.3861Z" fill="#263238"/>
<path d="M60.3195 104.184C58.4727 104.454 38.2767 71.05 38.2767 71.05L46.5171 26.5864C48.7527 13.1836 58.3971 3.31236 71.7459 5.91516L72.9663 6.22836C78.8886 7.74656 84.0209 11.4413 87.3397 16.5758C90.6586 21.7102 91.9202 27.907 90.8727 33.9304C88.8639 45.5404 86.5527 58.3384 84.8679 64.4188C81.4659 77.0008 68.3331 75.7264 68.3331 75.7264C68.3331 75.7264 67.6743 78.6748 66.8859 82.4116L60.3195 104.238V104.184Z" fill="#FFBE9D"/>
<path d="M68.3008 75.8235C62.4742 74.3115 57.204 71.1591 53.116 66.7407C53.116 66.7407 54.7576 76.9575 67.6528 79.0527L68.3008 75.8235Z" fill="#EB996E"/>
<path d="M64.1428 53.2405C64.4917 53.0081 64.8881 52.8568 65.303 52.7977C65.7179 52.7385 66.1408 52.773 66.5407 52.8985C66.9406 53.0241 67.3073 53.2376 67.6139 53.5233C67.9205 53.8091 68.1593 54.1599 68.3127 54.5499C68.466 54.94 68.5301 55.3594 68.5003 55.7775C68.4705 56.1956 68.3474 56.6016 68.1402 56.9659C67.9329 57.3303 67.6468 57.6435 67.3027 57.8829C66.9586 58.1222 66.5653 58.2814 66.1516 58.3489C65.3837 58.4484 64.6045 58.2888 63.9376 57.8953C63.4083 57.6432 62.9787 57.2212 62.7172 56.6965C62.5653 56.3055 62.5153 55.8822 62.572 55.4666C62.6287 55.0509 62.7901 54.6566 63.0412 54.3205C63.4325 53.746 63.9743 53.2902 64.6072 53.0029" fill="#EB996E"/>
<path d="M84.9112 43.8122C84.7979 44.2755 84.5098 44.677 84.1072 44.9327C83.7046 45.1884 83.2186 45.2783 82.7512 45.1838C82.5173 45.1424 82.2941 45.0547 82.0946 44.9258C81.8951 44.7969 81.7234 44.6294 81.5896 44.4332C81.4558 44.237 81.3625 44.016 81.3153 43.7833C81.2681 43.5505 81.2679 43.3107 81.3148 43.0778C81.4304 42.6159 81.719 42.2161 82.1209 41.9608C82.5229 41.7056 83.0075 41.6144 83.4748 41.7062C83.7086 41.7476 83.9318 41.8354 84.1313 41.9643C84.3308 42.0932 84.5025 42.2606 84.6363 42.4568C84.7701 42.653 84.8634 42.874 84.9106 43.1068C84.9578 43.3395 84.958 43.5794 84.9112 43.8122Z" fill="#263238"/>
<path d="M86.6176 39.4167C86.3368 39.5895 85.2244 38.2287 83.2804 37.7319C81.3364 37.2351 79.6732 37.8507 79.522 37.5591C79.3708 37.2675 79.7812 37.0623 80.5156 36.7707C81.5053 36.4045 82.5837 36.3517 83.6044 36.6195C84.6002 36.8842 85.4878 37.4546 86.1424 38.2503C86.6608 38.8551 86.758 39.3303 86.6176 39.4167Z" fill="#263238"/>
<path d="M67.3503 39.7946C67.2347 40.2565 66.9461 40.6564 66.5441 40.9117C66.1422 41.1669 65.6575 41.258 65.1903 41.1663C64.9562 41.1248 64.7326 41.0371 64.5327 40.9083C64.3327 40.7796 64.1604 40.6123 64.0257 40.4163C63.891 40.2203 63.7967 39.9995 63.7481 39.7667C63.6996 39.5339 63.6979 39.2937 63.7431 39.0603C63.8588 38.5984 64.1474 38.1985 64.5493 37.9433C64.9513 37.688 65.4359 37.5969 65.9031 37.6886C66.1379 37.7288 66.3623 37.8156 66.563 37.9439C66.7637 38.0723 66.9367 38.2396 67.0716 38.4359C67.2065 38.6323 67.3007 38.8537 67.3486 39.0871C67.3964 39.3204 67.397 39.561 67.3503 39.7946Z" fill="#263238"/>
<path d="M67.8364 35.0857C67.5448 35.2585 66.4432 33.8977 64.4992 33.4116C62.5552 32.9256 60.8812 33.5197 60.7408 33.228C60.6652 33.0984 61 32.7312 61.7344 32.4396C62.7241 32.0734 63.8025 32.0206 64.8232 32.2884C65.8298 32.549 66.729 33.1195 67.3936 33.9193C67.8796 34.5349 67.966 35.0101 67.8364 35.0857Z" fill="#263238"/>
<path d="M70.72 51.2104C71.8236 51.1488 72.9306 51.2286 74.014 51.448C74.5216 51.5236 75.0184 51.5452 75.1912 51.232C75.3497 50.7257 75.3497 50.1831 75.1912 49.6768C75.0292 48.3592 74.8672 46.9768 74.6944 45.5296C74.0356 39.6328 73.7008 34.8376 73.9384 34.816C74.176 34.7944 74.8996 39.5464 75.5584 45.4432C75.7096 46.8832 75.85 48.2656 75.9796 49.5904C76.1395 50.2706 76.0554 50.9854 75.742 51.61C75.6251 51.7664 75.4737 51.8937 75.2994 51.9818C75.1251 52.0698 74.9328 52.1163 74.7376 52.1176C74.4464 52.1277 74.1552 52.095 73.8736 52.0204C72.7934 51.8792 71.7344 51.6072 70.72 51.2104Z" fill="#263238"/>
<path d="M64.6612 51.059C64.9852 51.1238 64.4452 53.219 65.8708 55.1846C67.2964 57.1502 69.586 57.4958 69.532 57.7874C69.478 58.079 68.9272 58.0682 67.966 57.8522C66.7264 57.5542 65.6323 56.8274 64.8772 55.8002C64.1564 54.8139 63.8431 53.5878 64.0024 52.3766C64.1536 51.4694 64.5424 51.0158 64.6612 51.059Z" fill="#263238"/>
<path d="M69.8236 27.5151C69.4996 27.9903 67.6636 27.2451 65.2768 26.9319C62.89 26.6187 60.9568 26.7699 60.7516 26.2191C60.676 25.9599 61.1188 25.5495 61.9936 25.2255C63.1451 24.8565 64.3652 24.7532 65.5624 24.9234C66.7595 25.0937 67.9026 25.5329 68.9056 26.2083C69.6508 26.7591 69.9424 27.2883 69.8236 27.5151Z" fill="#263238"/>
<path d="M87.2224 33.7249C86.7688 34.0705 85.5484 33.2713 83.9824 32.8393C82.4164 32.4073 80.9368 32.3749 80.7424 31.8349C80.656 31.5757 80.9908 31.1869 81.6928 30.9277C82.6197 30.629 83.6149 30.6143 84.5502 30.8857C85.4856 31.1571 86.3184 31.702 86.9416 32.4505C87.3952 33.0445 87.4708 33.5413 87.2224 33.7249Z" fill="#263238"/>
<path d="M64.6288 12.1142L75.0076 3.06381C63.6676 -4.33419 49.552 3.06381 44.6164 10.4834C42.748 13.2806 42.154 16.715 39.8428 19.1234C36.1276 23.033 30.3496 24.437 28.4704 29.4914C27.2176 32.8394 28.7404 36.7598 27.466 40.1078C25.36 45.6266 16.7848 47.063 15.8344 52.8842C15.1864 56.9018 18.7504 60.8654 17.6272 64.7642C16.828 67.5614 13.8472 68.9762 11.8276 71.0714C4.18122 79.0094 6.07122 89.8094 12.5512 93.7514C14.7112 89.237 16.8712 84.0314 20.878 80.5646C24.8848 77.0978 29.3344 74.4734 34.5616 75.2186C37.6504 75.6614 40.3396 76.3742 42.9748 74.7002C45.0484 73.3934 45.7072 70.5854 45.3292 68.2202C44.9512 65.855 43.7524 63.587 42.8668 61.2974C41.9812 59.0078 41.398 56.4266 42.262 54.1262C43.7956 50.087 49.0984 48.5858 50.902 44.633C52.0792 41.987 51.3664 38.9306 50.8372 36.0686C50.308 33.2066 50.0596 29.9558 51.9172 27.7202C54.5848 24.4802 60.6868 24.5666 61.6912 20.5166C62.134 18.7238 61.2808 16.8986 60.9892 15.1166C60.6976 13.3346 62.7928 12.2438 64.6288 12.1142Z" fill="#263238"/>
<path d="M26.0404 77.1303C29.0104 75.2835 34.2808 74.4951 37.2832 75.5319C40.9984 76.8063 41.83 79.3983 43.3744 82.1847C49.2172 92.6715 55.0276 103.245 59.11 114.531C61.3488 112.476 63.0324 109.889 64.0047 107.01C64.9771 104.13 65.2066 101.052 64.672 98.0607C64.1752 95.4903 63.1168 93.0063 63.1384 90.3927C63.1384 87.9519 64.1212 85.5759 64.0996 83.1351C64.0734 81.5972 63.6647 80.09 62.9106 78.7495C62.1564 77.4089 61.0804 76.2772 59.7796 75.4563C57.4576 74.0307 54.304 73.4583 53.0944 71.0175C51.4636 67.7775 54.574 63.4575 52.6624 60.3147C51.1612 57.8847 47.4244 57.7227 45.7936 55.3683C45.3574 54.6429 45.0979 53.825 45.036 52.9808C44.9741 52.1366 45.1115 51.2897 45.4372 50.5083C46.0204 48.9207 49.4764 48.1215 50.5888 45.2163L42.8128 41.1987L31.0624 50.0655C31.0624 50.0655 24.766 76.2555 25.414 76.6983" fill="#263238"/>
<path d="M97.2339 112.144C97.9963 111.341 98.6967 110.482 99.3291 109.574C100.986 107.043 101.826 104.065 101.738 101.042C101.66 98.9702 101.126 96.9417 100.172 95.1015C98.959 93.0104 97.8769 90.8462 96.9315 88.6215C96.1906 86.0176 96.0759 83.2754 96.5967 80.6187C97.0736 77.814 97.3193 74.9749 97.3311 72.1299C97.1838 66.6356 96.606 61.1612 95.6031 55.7571C94.8109 51.3193 94.2629 46.8414 93.9615 42.3435C93.7916 39.3023 93.9327 36.2517 94.3827 33.2391C94.5447 32.1591 94.7715 31.3599 94.8903 30.8091C94.94 30.5255 95.0159 30.2471 95.1171 29.9775C95.1051 30.2687 95.0654 30.558 94.9983 30.8415C94.9227 31.3923 94.7283 32.2131 94.5987 33.2715C94.2329 36.274 94.1533 39.3044 94.3611 42.3219C94.7161 46.7985 95.3 51.2539 96.1107 55.6707C97.1524 61.103 97.7484 66.6114 97.8927 72.1407C97.8797 75.004 97.6304 77.8613 97.1475 80.6835C96.6286 83.2616 96.7248 85.9256 97.4283 88.4595C98.3386 90.6817 99.3846 92.8457 100.56 94.9395C101.525 96.8439 102.053 98.9397 102.105 101.074C102.158 104.158 101.24 107.181 99.4803 109.714C98.8675 110.64 98.1089 111.46 97.2339 112.144Z" fill="#263238"/>
<path d="M43.4284 16.0454C43.3169 16.3098 43.187 16.566 43.0396 16.8122C42.5858 17.5031 42.0115 18.1067 41.344 18.5942C40.2775 19.3476 39.1105 19.9475 37.8772 20.3762C36.4732 20.9378 34.8208 21.4562 33.1036 22.2014C31.2006 22.9306 29.622 24.3177 28.654 26.111C27.6604 28.0658 27.6496 30.5066 27.574 32.9906C27.581 34.2898 27.5089 35.5882 27.358 36.8786C27.2112 38.2528 26.7691 39.5791 26.062 40.7666C25.2735 41.9678 24.2207 42.9726 22.984 43.7042C21.7852 44.4818 20.4892 45.1082 19.258 45.8642C18.0178 46.5341 16.9179 47.4361 16.018 48.521C15.2212 49.6117 14.7258 50.8931 14.5816 52.2362C14.2468 54.893 14.7004 57.5282 14.6572 60.0662C14.664 61.3145 14.4968 62.5577 14.1604 63.7598C13.805 64.8847 13.2923 65.9537 12.6376 66.935C11.3956 68.8358 9.96999 70.3586 8.80359 71.849C6.77919 74.0509 5.62723 76.9154 5.56359 79.9058C5.63709 80.996 5.9824 82.0505 6.568 82.973C6.568 82.973 6.56798 82.973 6.41678 82.811C6.28636 82.6427 6.16731 82.4659 6.06039 82.2818C5.65655 81.5573 5.41344 80.7543 5.34759 79.9274C5.14239 77.7674 6.07119 74.5814 8.50119 71.6006C9.65679 70.0886 11.0716 68.5442 12.2596 66.6866C12.8824 65.7381 13.3661 64.7052 13.696 63.6194C14.014 62.4623 14.1667 61.2661 14.1496 60.0662C14.1496 57.5822 13.7176 54.947 14.0416 52.1606C14.1983 50.7231 14.731 49.3523 15.586 48.1862C16.5066 47.0422 17.6445 46.0915 18.934 45.389C20.1976 44.633 21.4828 44.0066 22.6492 43.229C23.8154 42.5413 24.812 41.6 25.5652 40.475C26.98 38.207 26.9584 35.4638 27.0232 32.9906C27.088 30.5174 27.0988 27.9902 28.168 25.9058C29.1993 24.0285 30.8702 22.5837 32.8768 21.8342C34.6372 21.0674 36.3004 20.603 37.7044 20.0846C38.923 19.6845 40.0819 19.1214 41.1496 18.4106C42.0589 17.7815 42.8336 16.9775 43.4284 16.0454Z" fill="#263238"/>
<path d="M81.6712 7.2974C78.0073 4.7812 73.7647 3.23632 69.3407 2.80753C64.9168 2.37874 60.4564 3.08007 56.3776 4.84581L60.1684 13.043C62.08 12.4058 64.1644 13.9178 64.8772 15.797C65.4334 17.7387 65.4892 19.7896 65.0392 21.7586L78.3016 26.2622L79.5652 22.2122C79.7164 24.059 79.8784 25.9166 80.0296 27.7742C84.2645 28.2533 88.4517 29.0879 92.5468 30.269C92.827 25.8324 91.9761 21.3974 90.0739 17.3795C88.1717 13.3616 85.2805 9.89254 81.6712 7.2974Z" fill="#263238"/>
<path d="M84.22 28.6815C84.1228 28.6815 84.22 27.1479 84.058 24.7071C83.9459 23.2826 83.733 21.8679 83.4208 20.4735C83.0356 18.7704 82.5118 17.1017 81.8548 15.4839C81.1749 13.8717 80.3696 12.3154 79.4464 10.8291C78.6804 9.62047 77.8324 8.46576 76.9084 7.3731C75.3208 5.5155 74.1652 4.53269 74.23 4.44629C74.5415 4.6249 74.8314 4.8387 75.094 5.08349C75.8608 5.70874 76.5826 6.38722 77.254 7.11389C78.2319 8.18693 79.1239 9.33528 79.9216 10.5483C81.8838 13.5333 83.2584 16.8653 83.9716 20.3655C84.2698 21.7879 84.4468 23.2331 84.5008 24.6855C84.5462 25.6614 84.5245 26.6393 84.436 27.6123C84.4146 27.9771 84.3419 28.337 84.22 28.6815Z" fill="#E0E0E0"/>
<path d="M164.68 129.823C164.68 129.823 156.71 125.644 145.683 131.983L140.38 134.014L142.032 140.418L164.68 129.823Z" fill="#EBEBEB"/>
<path d="M146.234 144.166C146.234 144.166 149.106 137.978 154.582 134.856C155.302 134.516 156.046 134.228 156.807 133.992C159.345 133.127 161.999 132.65 164.68 132.578V129.824C164.68 129.824 157.055 126.638 149.312 132.977C140.79 139.943 142.562 144.566 142.562 144.566L145.931 144.198" fill="#455A64"/>
<path d="M113.553 132.459C113.553 132.459 131.848 125.763 135.272 125.979C137.432 126.108 138.447 125.925 140.067 130.396C141.6 134.63 143.404 141.12 143.404 141.12L92.7628 166.144L92.59 156.262L100.668 137.049L113.553 132.459Z" fill="#455A64"/>
<path d="M101.651 142.384L127.377 134.025C127.377 134.025 131.61 126.929 135.812 127.448C140.013 127.966 141.212 133.83 141.212 133.83C141.212 133.83 139.343 124.283 134.613 125.115C131.146 125.72 113.531 132.459 113.531 132.459L101.986 142.082" fill="#EBEBEB"/>
<path d="M143.393 141.109L146.244 144.166L96.7371 169.276L92.7627 166.133L143.393 141.109Z" fill="#455A64"/>
<path d="M113.996 132.081L101.522 142.481L111.998 139.079C111.749 141.777 110.478 144.277 108.444 146.067C108.444 146.067 109.665 149.987 107.159 151.467C107.159 151.467 107.969 153.756 104.189 156.208C101.147 157.944 97.8744 159.242 94.4692 160.064L86.8228 160.928C84.3077 158.03 82.8561 154.361 82.708 150.527C82.5568 144.263 83.5612 143.41 83.5612 143.41C83.842 142.643 90.7864 133.884 92.4064 133.55C94.0264 133.215 101.63 135.288 101.63 135.288L107.602 132.675C107.602 132.675 111.274 130.731 112.16 130.968C112.17 131.012 113.92 131.282 113.996 132.081Z" fill="#FFBE9D"/>
<path d="M101.64 135.331C101.727 135.558 99.9988 136.411 97.7848 137.211C95.5708 138.01 93.724 138.517 93.6376 138.291C93.5512 138.064 95.29 137.211 97.4932 136.411C99.6964 135.612 101.565 135.115 101.64 135.331Z" fill="#EB996E"/>
<path d="M108.52 145.862C108.639 146.067 107.537 146.942 106.014 147.622C104.491 148.302 103.26 148.832 103.142 148.626C103.023 148.421 104.135 147.546 105.647 146.866C107.159 146.186 108.401 145.667 108.52 145.862Z" fill="#EB996E"/>
<path d="M103.034 153.594C102.936 153.378 103.779 152.741 104.913 152.169C106.047 151.596 107.073 151.305 107.159 151.51C107.246 151.715 106.425 152.352 105.28 152.925C104.135 153.497 103.131 153.81 103.034 153.594Z" fill="#EB996E"/>
<path d="M143.102 141.25C143.177 141.39 132.032 146.952 118.262 153.67C104.492 160.387 93.2164 165.723 93.1408 165.55C93.0652 165.377 104.211 159.858 117.981 153.13C131.751 146.401 143.037 141.109 143.102 141.25Z" fill="#263238"/>
<path d="M120.972 146.877C120.972 146.877 118.618 147.104 118.953 149.242L119.298 151.402C119.298 151.402 116.469 146.855 116.112 145.862C115.032 142.967 112.527 144.414 113.013 146.942C113.142 147.611 113.402 150.322 113.402 150.322C113.402 150.322 112.808 149.436 111.242 150.592C110.864 150.873 110.162 154.242 110.162 154.242L107.224 156.197C107.161 157.452 107.245 158.709 107.472 159.945C107.73 161.092 108.434 162.091 109.427 162.72C109.87 163.077 115.13 167.181 116.717 166.911C118.305 166.641 119.45 165.183 119.396 164.621C119.342 164.06 121.761 164.621 122.873 163.541C123.986 162.461 124.061 162.278 124.115 161.986C124.169 161.694 126.837 160.906 127.679 159.977C128.522 159.048 128.36 158.422 128.36 158.422C128.36 158.422 130.746 157.709 131.243 156.262C131.776 155.35 131.957 154.274 131.751 153.238L131.394 151.553L129.461 152.525L125.454 150.57C125.454 150.57 122.43 146.25 120.972 146.877Z" fill="#FFBE9D"/>
<path d="M126.189 157.331C126.092 157.525 123.845 156.521 121.664 154.469C119.482 152.417 118.305 150.268 118.488 150.149C118.672 150.03 120.119 151.888 122.236 153.843C124.353 155.797 126.308 157.115 126.189 157.331Z" fill="#EB996E"/>
<path d="M120.465 159.718C120.324 159.88 118.208 158.206 116.21 155.57C114.212 152.935 113.196 150.43 113.402 150.343C113.607 150.257 114.935 152.503 116.879 155.063C118.823 157.622 120.638 159.534 120.465 159.718Z" fill="#EB996E"/>
<path d="M117.516 162.666C117.516 162.774 116.804 162.742 115.745 162.375C114.361 161.875 113.122 161.04 112.138 159.945C111.165 158.837 110.492 157.498 110.183 156.057C109.967 154.977 110.043 154.264 110.183 154.264C110.453 154.199 110.68 156.985 112.818 159.383C114.957 161.781 117.614 162.45 117.516 162.666Z" fill="#EB996E"/>
<path d="M146.244 144.166C145.938 143.955 145.649 143.721 145.38 143.464L143.004 141.358C142.734 140.138 142.367 138.658 141.86 136.984C141.314 135.128 140.613 133.322 139.764 131.584C139.281 130.606 138.663 129.701 137.928 128.895C137.55 128.495 137.09 128.181 136.578 127.977C136.33 127.89 136.049 127.88 135.779 127.815C135.025 127.792 134.275 127.934 133.581 128.23C132.887 128.527 132.266 128.971 131.762 129.532C130.78 130.372 129.883 131.305 129.083 132.318C128.576 132.946 128.1 133.598 127.658 134.273V134.36H127.56C120.422 136.714 114.168 139.166 109.524 140.526C107.213 141.228 105.323 141.714 104.016 141.995C103.358 142.157 102.85 142.244 102.504 142.308C102.329 142.359 102.147 142.381 101.964 142.373C102.128 142.3 102.298 142.242 102.472 142.2L103.962 141.801C105.258 141.444 107.116 140.904 109.362 140.159C113.963 138.712 120.162 136.206 127.344 133.83L127.193 133.949C127.644 133.252 128.131 132.577 128.651 131.93C129.478 130.891 130.404 129.936 131.416 129.078C132.392 128.205 133.574 127.592 134.85 127.296C135.174 127.275 135.499 127.275 135.822 127.296C136.143 127.347 136.46 127.416 136.773 127.502C137.359 127.741 137.883 128.11 138.306 128.582C139.08 129.422 139.721 130.377 140.207 131.411C141.05 133.191 141.737 135.042 142.259 136.941C142.734 138.626 143.069 140.127 143.339 141.369V141.293L145.629 143.453C145.853 143.673 146.059 143.912 146.244 144.166Z" fill="#263238"/>
<path d="M85.2244 143.42C85.2244 143.42 62.8036 150.008 56.95 151.445C52.792 152.46 38.7088 154.534 38.7088 154.534L10.7476 167.602C11.6764 176.89 15.0676 183.402 20.4676 184.288C25.8676 185.173 48.0616 179.395 61.1944 172.721C70.1445 168.265 79.3187 164.275 88.6804 160.765L85.2244 143.42Z" fill="#FFBE9D"/>
<path d="M28.0492 80.3702C26.221 80.6699 24.545 81.5706 23.2864 82.9298C20.4136 85.9646 15.3052 92.9846 13.1344 106.096C10.0348 124.845 10.7476 167.656 10.7476 167.656L40.3936 155.247C40.3936 155.247 43.2232 114.207 43.5364 103.083C43.7956 93.4706 39.7024 78.5774 28.0492 80.3702Z" fill="#FFBE9D"/>
<path d="M41.9812 154.285C39.8129 154.747 37.7291 155.541 35.8036 156.64C33.9786 157.9 32.3547 159.43 30.9868 161.176C31.1871 160.532 31.518 159.936 31.9588 159.426C32.9361 158.139 34.1402 157.041 35.512 156.186C36.8835 155.323 38.4033 154.723 39.994 154.415C40.6394 154.229 41.3172 154.185 41.9812 154.285Z" fill="#EB996E"/>
</svg>
